<svg width="152" height="195" viewBox="0 0 152 195" fill="none" xmlns="http://www.w3.org/2000/svg">
<path fill-rule="evenodd" clip-rule="evenodd" d="M50 20C36.7452 20 26 30.7452 26 44V45C26 56.9621 34.7514 66.8802 46.201 68.701L53.5 76L60.5 69H102C115.255 69 126 58.2548 126 45V44C126 30.7452 115.255 20 102 20H50Z" fill="#F3F4F6"/>
<path fill-rule="evenodd" clip-rule="evenodd" d="M80.5 74C70.2827 74 62 82.2827 62 92.5C62 102.717 70.2827 111 80.5 111H92L100 119L108.007 110.993C117.99 110.725 126 102.548 126 92.5C126 82.2827 117.717 74 107.5 74H80.5Z" fill="#F3F4F6"/>
<circle cx="64" cy="45" r="3" fill="#E5E7EB"/>
<circle cx="76" cy="45" r="3" fill="#E5E7EB"/>
<circle cx="88" cy="45" r="3" fill="#E5E7EB"/>
<circle cx="82" cy="93" r="3" fill="#E5E7EB"/>
<circle cx="94" cy="93" r="3" fill="#E5E7EB"/>
<circle cx="106" cy="93" r="3" fill="#E5E7EB"/>
<path d="M18.8906 153.453C20.9375 153.469 22.3906 155.344 22.4062 158.297C22.3906 161.25 20.9375 163.125 18.8906 163.125C16.8281 163.125 15.3906 161.25 15.3906 158.297C15.3906 155.344 16.8281 153.469 18.8906 153.453ZM18.8906 154.547C17.5156 154.562 16.5469 156.031 16.5469 158.297C16.5469 160.562 17.5156 162.031 18.8906 162.031C20.2812 162.031 21.2188 160.562 21.2188 158.297C21.2188 156.031 20.2812 154.562 18.8906 154.547ZM25.9219 152.375V157.922H28.25V158.984H25.9219V166.266H24.7031V152.375H25.9219ZM34 154.953C34 156.828 35.4844 158.531 37.5625 159.203L36.9375 160.156C35.3203 159.609 34.0312 158.461 33.4062 156.984C32.7969 158.57 31.4922 159.82 29.8438 160.422L29.2031 159.469C31.2812 158.734 32.7656 156.922 32.7656 154.953V154.359H29.5156V153.359H37.2031V154.359H34V154.953ZM40.4688 152.375V160.781H39.25V152.375H40.4688ZM40.4688 161.516V166.266H39.25V162.531H31.125V161.516H40.4688ZM52.7969 153.594V154.609H48.6875V158.766C50.5391 158.773 51.8984 158.703 53.4844 158.375L53.5938 159.391C51.8594 159.719 50.4375 159.781 48.375 159.781H47.4844V153.594H52.7969ZM58.6406 152.375V161.562H57.4688V157.047H55.5156V160.359H54.375V152.641H55.5156V156.016H57.4688V152.375H58.6406ZM54.6094 161.469C54.6094 163.328 56.9531 164.875 59.3906 165.25L58.8594 166.203C56.7969 165.828 54.8359 164.734 54 163.156C53.1562 164.734 51.1875 165.828 49.1406 166.203L48.6094 165.25C51.0312 164.875 53.375 163.328 53.3906 161.469V160.938H54.6094V161.469ZM71.7188 152.984V153.875C71.7188 154.82 71.7188 156.008 71.4062 157.578H73.3906V158.562H60.6719V157.578H70.1719C70.4844 156.031 70.5 154.891 70.5 153.984H62.2812V152.984H71.7188ZM71.7656 159.969V163.469H63.4375V165.109H72.125V166.109H62.2031V162.5H70.5469V160.953H62.1875V159.969H71.7656ZM85.9531 152.375V166.297H84.7188V152.375H85.9531ZM78.5625 153.453C80.625 153.469 82.1094 155.344 82.1094 158.297C82.1094 161.25 80.625 163.125 78.5625 163.125C76.4844 163.125 75.0156 161.25 75.0156 158.297C75.0156 155.344 76.4844 153.469 78.5625 153.453ZM78.5625 154.547C77.1719 154.562 76.2031 156.031 76.2031 158.297C76.2031 160.562 77.1719 162.031 78.5625 162.031C79.9531 162.031 80.9219 160.562 80.9219 158.297C80.9219 156.031 79.9531 154.562 78.5625 154.547ZM95.1094 160.531V162.266H97.6406V160.531H98.7812V166.078H93.9531V160.531H95.1094ZM95.1094 165.109H97.6406V163.203H95.1094V165.109ZM102.75 161.625C102.734 163.094 103.609 164.625 105.312 165.25L104.672 166.188C103.391 165.672 102.547 164.695 102.125 163.531C101.68 164.672 100.836 165.656 99.6094 166.188L98.9688 165.25C100.641 164.562 101.531 163.031 101.531 161.625V160.438H102.75V161.625ZM96.1719 153C98.0312 153 99.4531 154.055 99.7188 155.656H102.625V152.375H103.859V159.734H102.625V156.672H99.7344C99.4844 158.312 98.0547 159.391 96.1719 159.391C94.0625 159.391 92.5625 158.094 92.5625 156.188C92.5625 154.297 94.0625 153 96.1719 153ZM96.1719 154.031C94.75 154.031 93.7344 154.922 93.7344 156.188C93.7344 157.469 94.75 158.375 96.1719 158.375C97.5781 158.375 98.5781 157.469 98.5781 156.188C98.5781 154.922 97.5781 154.031 96.1719 154.031ZM109.906 153.453C111.797 153.469 113.156 155.086 113.359 157.688H116.469V152.375H117.688V166.297H116.469V158.703H113.375C113.227 161.422 111.844 163.125 109.906 163.125C107.859 163.125 106.422 161.25 106.422 158.297C106.422 155.344 107.859 153.469 109.906 153.453ZM109.906 154.547C108.531 154.562 107.594 156.031 107.594 158.297C107.594 160.562 108.531 162.031 109.906 162.031C111.266 162.031 112.219 160.562 112.219 158.297C112.219 156.031 111.266 154.562 109.906 154.547ZM132.719 163.453V164.484H120V163.453H123.156V159.703C121.969 159.086 121.25 158.086 121.25 156.828C121.25 154.672 123.359 153.266 126.328 153.25C129.297 153.266 131.406 154.672 131.406 156.828C131.406 158.062 130.711 159.055 129.562 159.672V163.453H132.719ZM126.328 154.266C124.047 154.25 122.438 155.281 122.438 156.828C122.438 158.375 124.047 159.422 126.328 159.422C128.594 159.422 130.219 158.375 130.219 156.828C130.219 155.281 128.594 154.25 126.328 154.266ZM124.359 163.453H128.328V160.141C127.727 160.305 127.055 160.391 126.328 160.391C125.617 160.391 124.953 160.312 124.359 160.156V163.453ZM136.109 163.953L134.891 168.203H133.734L134.594 163.953H136.109ZM6.32031 180.641C6.32031 183 8.03906 185.391 10.0859 186.281L9.39844 187.25C7.77344 186.508 6.36719 184.906 5.72656 182.984C5.07031 185.023 3.67188 186.797 2.08594 187.594L1.35156 186.625C3.33594 185.672 5.07031 183.047 5.08594 180.641V178.828H1.80469V177.812H9.63281V178.828H6.32031V180.641ZM12.8047 176.375V190.266H11.5703V176.375H12.8047ZM26.2266 177.125V178.156C26.2266 179.234 26.2266 180.5 25.8672 182.234H27.8984V183.25H15.1797V182.234H24.6328C25.0078 180.492 25.0078 179.234 25.0078 178.156V178.141H16.7891V177.125H26.2266ZM26.2891 185.172V190.078H16.7422V185.172H26.2891ZM17.9609 186.141V189.078H25.0703V186.141H17.9609ZM38.9766 177.594V178.609H34.8672V182.766C36.7188 182.773 38.0781 182.703 39.6641 182.375L39.7734 183.391C38.0391 183.719 36.6172 183.781 34.5547 183.781H33.6641V177.594H38.9766ZM44.8203 176.375V185.562H43.6484V181.047H41.6953V184.359H40.5547V176.641H41.6953V180.016H43.6484V176.375H44.8203ZM40.7891 185.469C40.7891 187.328 43.1328 188.875 45.5703 189.25L45.0391 190.203C42.9766 189.828 41.0156 188.734 40.1797 187.156C39.3359 188.734 37.3672 189.828 35.3203 190.203L34.7891 189.25C37.2109 188.875 39.5547 187.328 39.5703 185.469V184.938H40.7891V185.469ZM57.8984 176.984V177.875C57.8984 178.82 57.8984 180.008 57.5859 181.578H59.5703V182.562H46.8516V181.578H56.3516C56.6641 180.031 56.6797 178.891 56.6797 177.984H48.4609V176.984H57.8984ZM57.9453 183.969V187.469H49.6172V189.109H58.3047V190.109H48.3828V186.5H56.7266V184.953H48.3672V183.969H57.9453ZM67.0078 176.625C70.1016 176.625 71.9141 177.469 71.9141 179.016C71.9141 180.594 70.1016 181.438 67.0078 181.453C63.9141 181.438 62.0859 180.594 62.0859 179.016C62.0859 177.469 63.9141 176.625 67.0078 176.625ZM67.0078 177.547C64.6953 177.547 63.3516 178.109 63.3672 179.016C63.3516 179.984 64.6953 180.516 67.0078 180.516C69.3047 180.516 70.6641 179.984 70.6641 179.016C70.6641 178.109 69.3047 177.547 67.0078 177.547ZM73.3359 182.391V183.391H60.6797V182.391H73.3359ZM71.7109 184.594V187.703H63.4609V189.141H72.1328V190.109H62.2422V186.797H70.5078V185.531H62.2109V184.594H71.7109ZM85.3359 177.188V178.188H80.3672V181.844C83.0859 181.859 84.7266 181.758 86.6328 181.375L86.7891 182.359C84.8047 182.781 83.1016 182.859 80.2422 182.844H79.1641V177.188H85.3359ZM89.3828 176.375V179.328H91.4766V180.344H89.3828V183.391H88.1641V176.375H89.3828ZM89.3828 184.078V187.5H81.7578V189.078H89.8984V190.078H80.5547V186.531H88.1641V185.078H80.5234V184.078H89.3828ZM96.0703 177.453C98.1172 177.469 99.5703 179.344 99.5859 182.297C99.5703 185.25 98.1172 187.125 96.0703 187.125C94.0078 187.125 92.5703 185.25 92.5703 182.297C92.5703 179.344 94.0078 177.469 96.0703 177.453ZM96.0703 178.547C94.6953 178.562 93.7266 180.031 93.7266 182.297C93.7266 184.562 94.6953 186.031 96.0703 186.031C97.4609 186.031 98.3984 184.562 98.3984 182.297C98.3984 180.031 97.4609 178.562 96.0703 178.547ZM103.102 176.375V181.922H105.43V182.984H103.102V190.266H101.883V176.375H103.102ZM118.898 187.469V188.484H106.18V187.469H111.898V184.469H107.68V177.359H108.914V179.875H116.133V177.359H117.336V184.469H113.102V187.469H118.898ZM108.914 183.469H116.133V180.875H108.914V183.469ZM124.133 180.328C124.133 182.531 125.211 184.922 127.055 186.016L126.352 186.969C125.016 186.156 124.055 184.672 123.57 182.984C123.055 184.828 122.023 186.414 120.633 187.266L119.852 186.344C121.773 185.219 122.945 182.75 122.945 180.375V177.688H124.133V180.328ZM131.914 176.375V190.266H130.727V176.375H131.914ZM129.039 176.672V189.562H127.883V182.406H125.523V181.359H127.883V176.672H129.039ZM146.555 187.453V188.484H133.836V187.453H136.992V183.703C135.805 183.086 135.086 182.086 135.086 180.828C135.086 178.672 137.195 177.266 140.164 177.25C143.133 177.266 145.242 178.672 145.242 180.828C145.242 182.062 144.547 183.055 143.398 183.672V187.453H146.555ZM140.164 178.266C137.883 178.25 136.273 179.281 136.273 180.828C136.273 182.375 137.883 183.422 140.164 183.422C142.43 183.422 144.055 182.375 144.055 180.828C144.055 179.281 142.43 178.25 140.164 178.266ZM138.195 187.453H142.164V184.141C141.562 184.305 140.891 184.391 140.164 184.391C139.453 184.391 138.789 184.312 138.195 184.156V187.453ZM149.914 177.688L149.805 185.812H148.492L148.383 177.688H149.914ZM149.148 189.094C148.602 189.094 148.133 188.641 148.148 188.078C148.133 187.531 148.602 187.078 149.148 187.078C149.695 187.078 150.148 187.531 150.148 188.078C150.148 188.641 149.695 189.094 149.148 189.094Z" fill="#9CA3AF"/>
</svg>
